<svg width="1026" height="1026" viewBox="0 0 1026 1026" fill="none" xmlns="http://www.w3.org/2000/svg">
<path d="M308.007 271.256C291.073 272.989 276.14 276.056 259.473 281.122C227.607 290.856 226.673 291.789 226.673 316.722V333.789H203.74C178.94 333.789 177.073 334.322 173.473 341.389C172.407 343.522 172.007 399.522 172.007 543.789C172.007 762.989 171.473 748.722 180.007 753.122C183.473 754.856 221.473 755.122 513.34 755.122C805.207 755.122 843.207 754.856 846.673 753.122C855.207 748.722 854.673 762.989 854.673 543.789C854.673 359.922 854.54 343.922 852.407 340.456C848.94 334.456 845.607 333.789 822.007 333.789H800.007V316.722C800.007 292.189 799.873 292.056 771.34 282.456C711.74 262.456 639.34 267.256 574.007 295.789C556.94 303.256 535.207 315.122 521.073 324.589L513.473 329.789L500.407 321.389C440.94 283.122 370.94 264.856 308.007 271.256ZM369.207 301.122C409.74 306.856 448.94 321.922 486.407 346.056L498.673 354.056V533.256C498.673 631.789 498.54 712.456 498.273 712.456C498.007 712.456 491.073 708.589 482.94 703.922C449.207 684.722 412.94 672.322 371.34 665.656C357.473 663.389 310.54 663.389 296.673 665.656C287.74 666.989 269.473 671.256 257.74 674.589L254.673 675.389V494.189V312.856L260.407 310.722C269.873 307.122 285.607 303.122 298.14 301.256C314.14 298.722 351.873 298.722 369.207 301.122ZM727.34 301.122C740.673 303.122 762.54 308.589 768.807 311.389L772.007 312.856V494.056C772.007 666.056 771.873 675.256 769.74 674.589C740.14 665.256 700.14 661.256 668.673 664.322C624.54 668.589 578.14 683.656 540.94 705.522C534.407 709.389 528.807 712.456 528.54 712.456C528.273 712.456 528.007 631.789 528.007 533.256V354.056L541.073 345.656C575.607 323.256 618.14 306.722 656.273 301.256C673.607 298.722 710.94 298.722 727.34 301.122ZM226.94 531.922L227.34 702.056L231.873 706.056C237.473 711.122 241.873 710.722 260.407 703.922C276.807 697.922 294.807 694.189 316.54 692.322C357.34 688.856 408.407 698.989 448.673 718.456L463.34 725.522L331.74 725.656L200.007 725.789V543.789V361.789H213.34H226.673L226.94 531.922ZM826.673 543.789V725.789H695.073L563.34 725.656L572.007 721.256C586.407 713.789 610.407 704.856 626.673 700.589C651.34 694.322 668.673 692.056 694.007 692.189C721.607 692.189 741.34 695.256 763.873 703.256C785.34 710.722 789.207 711.122 794.807 706.056L799.34 702.056L799.74 531.922L800.007 361.789H813.34H826.673V543.789Z" fill="url(#paint0_linear_7_43)"/>
<circle cx="513" cy="513" r="499" stroke="url(#paint1_linear_7_43)" stroke-width="28"/>
<defs>
<linearGradient id="paint0_linear_7_43" x1="135" y1="147.5" x2="1017.37" y2="613.663" gradientUnits="userSpaceOnUse">
<stop stop-color="#71C5EE"/>
<stop offset="1" stop-color="#025091"/>
</linearGradient>
<linearGradient id="paint1_linear_7_43" x1="160.5" y1="97" x2="901.5" y2="906" gradientUnits="userSpaceOnUse">
<stop stop-color="#71C5EE"/>
<stop offset="1" stop-color="#025091"/>
</linearGradient>
</defs>
</svg>
